<svg width="1360" height="121" viewBox="0 0 1360 121" fill="none" xmlns="http://www.w3.org/2000/svg">
<g opacity="0.2">
<path d="M1304.05 119.338V76.2339L1262.81 1.01367H1285.46L1322.64 68.1203L1354.59 1.01367H1360L1323.66 75.8959V119.338H1304.05Z" fill="url(#paint0_linear_78_322)"/>
<path d="M1172.61 119.338V1.01367L1205.57 1.18271C1231.43 1.18271 1250.7 13.3532 1250.7 33.1302C1250.7 51.0478 1232.95 64.4015 1211.15 64.9086L1256.96 119.338H1249.86L1204.05 64.9086H1192.21V119.338H1172.61ZM1192.21 60.1757H1207.77C1225.68 60.1757 1230.42 43.7794 1230.42 32.9612C1230.42 20.6217 1223.66 5.74663 1205.57 5.74663H1192.21V60.1757Z" fill="url(#paint1_linear_78_322)"/>
<path d="M1094.59 120.352C1057.57 120.352 1032.39 95.8425 1032.39 60.5143C1032.39 25.1861 1057.57 0 1094.59 0C1131.61 0 1156.79 25.1861 1156.79 60.5143C1156.79 95.8425 1131.61 120.352 1094.59 120.352ZM1053.68 60.1762C1053.68 86.7146 1067.38 115.45 1094.59 115.45C1121.8 115.45 1135.5 86.8836 1135.5 60.1762C1135.5 33.4688 1121.8 4.90199 1094.59 4.90199C1067.38 4.90199 1053.68 33.6378 1053.68 60.1762Z" fill="url(#paint2_linear_78_322)"/>
<path d="M983.292 119.338V5.91567H949.993V1.01367H1036.37V5.91567H1002.9V119.338H983.292Z" fill="url(#paint3_linear_78_322)"/>
<path d="M907.11 120.014C892.235 120.014 881.754 115.281 871.274 103.956L873.81 97.7017C880.74 109.027 894.263 115.112 906.772 115.112C920.125 115.112 929.084 104.463 929.084 92.7997C929.084 63.8948 874.993 66.0922 874.993 30.426C874.993 8.78961 894.432 0.337891 913.702 0.337891C925.027 0.337891 936.015 4.22568 941.762 11.1561L939.226 17.4104C933.479 8.45155 923.844 5.23989 913.195 5.23989C902.039 5.23989 894.432 14.8748 894.432 24.8479C894.432 54.7669 948.861 51.5553 948.861 89.9261C948.861 110.21 929.591 120.014 907.11 120.014Z" fill="url(#paint4_linear_78_322)"/>
<path d="M722.454 119.338V1.01367L755.416 1.18271C781.278 1.18271 800.548 13.3532 800.548 33.1302C800.548 51.0478 782.799 64.4015 760.994 64.9086L806.802 119.338H799.703L753.894 64.9086H742.062V119.338H722.454ZM742.062 60.1757H757.613C775.531 60.1757 780.264 43.7794 780.264 32.9612C780.264 20.6217 773.502 5.74663 755.416 5.74663H742.062V60.1757Z" fill="url(#paint5_linear_78_322)"/>
<path d="M660.084 120.352C632.363 120.352 617.319 104.463 616.643 83.1644C616.474 78.0933 616.643 58.9924 616.643 41.2438V1.01367H636.251V79.4456C636.251 110.886 650.787 115.45 662.113 115.45C687.637 115.45 698.117 100.406 698.117 72.8533V1.01367H703.019V72.8533C703.019 105.646 689.496 120.352 660.084 120.352Z" fill="url(#paint6_linear_78_322)"/>
<path d="M535.324 120.352C498.305 120.352 473.119 95.8425 473.119 60.5143C473.119 25.1861 498.305 0 535.324 0C572.342 0 597.529 25.1861 597.529 60.5143C597.529 95.8425 572.342 120.352 535.324 120.352ZM494.418 60.1762C494.418 86.7146 508.109 115.45 535.324 115.45C562.539 115.45 576.23 86.8836 576.23 60.1762C576.23 33.4688 562.539 4.90199 535.324 4.90199C508.109 4.90199 494.418 33.6378 494.418 60.1762Z" fill="url(#paint7_linear_78_322)"/>
<path d="M414.308 119.338V76.2339L373.064 1.01367H395.715L432.902 68.1203L464.85 1.01367H470.259L433.916 75.8959V119.338H414.308Z" fill="url(#paint8_linear_78_322)"/>
<path d="M255.794 119.338V1.01367H275.402V114.436H317.66V119.338H255.794Z" fill="url(#paint9_linear_78_322)"/>
<path d="M178.045 119.338V1.01367H197.653V114.436H239.911V119.338H178.045Z" fill="url(#paint10_linear_78_322)"/>
<path d="M97.4893 119.338V1.01367H162.229V5.91567H117.097V57.9782H153.778V62.7112H117.097V114.436H162.229V119.338H97.4893Z" fill="url(#paint11_linear_78_322)"/>
<path d="M33.2998 119.338V5.91567H0V1.01367H86.3765V5.91567H52.9077V119.338H33.2998Z" fill="url(#paint12_linear_78_322)"/>
</g>
<defs>
<linearGradient id="paint0_linear_78_322" x1="1308.65" y1="3.47154" x2="1308.65" y2="99.3283" gradientUnits="userSpaceOnUse">
<stop stop-color="white"/>
<stop offset="1" stop-color="white" stop-opacity="0"/>
</linearGradient>
<linearGradient id="paint1_linear_78_322" x1="1212.39" y1="3.47154" x2="1212.39" y2="99.3283" gradientUnits="userSpaceOnUse">
<stop stop-color="white"/>
<stop offset="1" stop-color="white" stop-opacity="0"/>
</linearGradient>
<linearGradient id="paint2_linear_78_322" x1="1091.07" y1="2.50001" x2="1091.07" y2="100" gradientUnits="userSpaceOnUse">
<stop stop-color="white"/>
<stop offset="1" stop-color="white" stop-opacity="0"/>
</linearGradient>
<linearGradient id="paint3_linear_78_322" x1="990.736" y1="3.47154" x2="990.736" y2="99.3283" gradientUnits="userSpaceOnUse">
<stop stop-color="white"/>
<stop offset="1" stop-color="white" stop-opacity="0"/>
</linearGradient>
<linearGradient id="paint4_linear_78_322" x1="907.871" y1="2.82385" x2="907.871" y2="99.7761" gradientUnits="userSpaceOnUse">
<stop stop-color="white"/>
<stop offset="1" stop-color="white" stop-opacity="0"/>
</linearGradient>
<linearGradient id="paint5_linear_78_322" x1="762.24" y1="3.47154" x2="762.24" y2="99.3283" gradientUnits="userSpaceOnUse">
<stop stop-color="white"/>
<stop offset="1" stop-color="white" stop-opacity="0"/>
</linearGradient>
<linearGradient id="paint6_linear_78_322" x1="657.346" y1="3.49261" x2="657.346" y2="100.171" gradientUnits="userSpaceOnUse">
<stop stop-color="white"/>
<stop offset="1" stop-color="white" stop-opacity="0"/>
</linearGradient>
<linearGradient id="paint7_linear_78_322" x1="531.802" y1="2.50001" x2="531.802" y2="100" gradientUnits="userSpaceOnUse">
<stop stop-color="white"/>
<stop offset="1" stop-color="white" stop-opacity="0"/>
</linearGradient>
<linearGradient id="paint8_linear_78_322" x1="418.91" y1="3.47154" x2="418.91" y2="99.3283" gradientUnits="userSpaceOnUse">
<stop stop-color="white"/>
<stop offset="1" stop-color="white" stop-opacity="0"/>
</linearGradient>
<linearGradient id="paint9_linear_78_322" x1="284.976" y1="3.47154" x2="284.976" y2="99.3283" gradientUnits="userSpaceOnUse">
<stop stop-color="white"/>
<stop offset="1" stop-color="white" stop-opacity="0"/>
</linearGradient>
<linearGradient id="paint10_linear_78_322" x1="207.227" y1="3.47154" x2="207.227" y2="99.3283" gradientUnits="userSpaceOnUse">
<stop stop-color="white"/>
<stop offset="1" stop-color="white" stop-opacity="0"/>
</linearGradient>
<linearGradient id="paint11_linear_78_322" x1="128.027" y1="3.47154" x2="128.027" y2="99.3283" gradientUnits="userSpaceOnUse">
<stop stop-color="white"/>
<stop offset="1" stop-color="white" stop-opacity="0"/>
</linearGradient>
<linearGradient id="paint12_linear_78_322" x1="40.743" y1="3.47154" x2="40.7431" y2="99.3283" gradientUnits="userSpaceOnUse">
<stop stop-color="white"/>
<stop offset="1" stop-color="white" stop-opacity="0"/>
</linearGradient>
</defs>
</svg>
